HIERARCHY
ROOT Hips
{
	OFFSET 0.00000 0.00000 0.00000
	CHANNELS 6 Xposition Yposition Zposition Zrotation Yrotation Xrotation 
	JOINT LHipJoint
	{
		OFFSET 0 0 0
		CHANNELS 3 Zrotation Yrotation Xrotation
		JOINT LeftUpLeg
		{
			OFFSET 1.37590 -1.78394 0.89329
			CHANNELS 3 Zrotation Yrotation Xrotation
			JOINT LeftLeg
			{
				OFFSET 2.47928 -6.81178 0.00000
				CHANNELS 3 Zrotation Yrotation Xrotation
				JOINT LeftFoot
				{
					OFFSET 2.63345 -7.23535 0.00000
					CHANNELS 3 Zrotation Yrotation Xrotation
					JOINT LeftToeBase
					{
						OFFSET 0.23938 -0.65768 2.27012
						CHANNELS 3 Zrotation Yrotation Xrotation
						End Site
						{
							OFFSET 0.00000 -0.00000 1.18363
						}
					}
				}
			}
		}
	}
	JOINT RHipJoint
	{
		OFFSET 0 0 0
		CHANNELS 3 Zrotation Yrotation Xrotation
		JOINT RightUpLeg
		{
			OFFSET -1.33617 -1.78394 0.89329
			CHANNELS 3 Zrotation Yrotation Xrotation
			JOINT RightLeg
			{
				OFFSET -2.56922 -7.05888 0.00000
				CHANNELS 3 Zrotation Yrotation Xrotation
				JOINT RightFoot
				{
					OFFSET -2.56568 -7.04915 0.00000
					CHANNELS 3 Zrotation Yrotation Xrotation
					JOINT RightToeBase
					{
						OFFSET -0.27533 -0.75646 2.18105
						CHANNELS 3 Zrotation Yrotation Xrotation
						End Site
						{
							OFFSET -0.00000 -0.00000 1.15233
						}
					}
				}
			}
		}
	}
	JOINT LowerBack
	{
		OFFSET 0 0 0
		CHANNELS 3 Zrotation Yrotation Xrotation
		JOINT Spine
		{
			OFFSET 0.06190 2.15152 -0.00935
			CHANNELS 3 Zrotation Yrotation Xrotation
			JOINT Spine1
			{
				OFFSET 0.06334 2.15332 0.00872
				CHANNELS 3 Zrotation Yrotation Xrotation
				JOINT Neck
				{
					OFFSET 0 0 0
					CHANNELS 3 Zrotation Yrotation Xrotation
					JOINT Neck1
					{
						OFFSET -0.04202 1.66908 0.23524
						CHANNELS 3 Zrotation Yrotation Xrotation
						JOINT Head
						{
							OFFSET 0.07510 1.69357 -0.24440
							CHANNELS 3 Zrotation Yrotation Xrotation
							End Site
							{
								OFFSET 0.02556 1.71719 -0.11000
							}
						}
					}
				}
				JOINT LeftShoulder
				{
					OFFSET 0 0 0
					CHANNELS 3 Zrotation Yrotation Xrotation
					JOINT LeftArm
					{
						OFFSET 3.67168 1.26306 -0.41342
						CHANNELS 3 Zrotation Yrotation Xrotation
						JOINT LeftForeArm
						{
							OFFSET 4.68510 -0.00000 -0.00000
							CHANNELS 3 Zrotation Yrotation Xrotation
							JOINT LeftHand
							{
								OFFSET 3.39626 -0.00000 -0.00000
								CHANNELS 3 Zrotation Yrotation Xrotation
								JOINT LeftFingerBase
								{
									OFFSET 0 0 0
									CHANNELS 3 Zrotation Yrotation Xrotation
									JOINT LeftHandIndex1
									{
										OFFSET 0.48608 -0.00000 -0.00000
										CHANNELS 3 Zrotation Yrotation Xrotation
										End Site
										{
											OFFSET 0.39189 -0.00000 -0.00000
										}
									}
								}
								JOINT LThumb
								{
									OFFSET 0 0 0
									CHANNELS 3 Zrotation Yrotation Xrotation
									End Site
									{
										OFFSET 0.39787 -0.00000 0.39787
									}
								}
							}
						}
					}
				}
				JOINT RightShoulder
				{
					OFFSET 0 0 0
					CHANNELS 3 Zrotation Yrotation Xrotation
					JOINT RightArm
					{
						OFFSET -3.04136 1.42992 -0.76390
						CHANNELS 3 Zrotation Yrotation Xrotation
						JOINT RightForeArm
						{
							OFFSET -5.55576 -0.00000 -0.00000
							CHANNELS 3 Zrotation Yrotation Xrotation
							JOINT RightHand
							{
								OFFSET -3.32774 -0.00000 -0.00000
								CHANNELS 3 Zrotation Yrotation Xrotation
								JOINT RightFingerBase
								{
									OFFSET 0 0 0
									CHANNELS 3 Zrotation Yrotation Xrotation
									JOINT RightHandIndex1
									{
										OFFSET -0.50763 -0.00000 -0.00000
										CHANNELS 3 Zrotation Yrotation Xrotation
										End Site
										{
											OFFSET -0.40926 -0.00000 -0.00000
										}
									}
								}
								JOINT RThumb
								{
									OFFSET 0 0 0
									CHANNELS 3 Zrotation Yrotation Xrotation
									End Site
									{
										OFFSET -0.41551 -0.00000 0.41551
									}
								}
							}
						}
					}
				}
			}
		}
	}
}
MOTION
Frames: 6
Frame Time: 0.0465116
0.00 0.00 0.00 -71.3261 -80.6356 77.0883 0.0000 0.0000 0.0000 -5.1180 -9.8886 -22.3531 10.4231 17.6410 60.8934 0.0018 -1.4350 -1.1994 0.6080 -4.9908 -13.8823 0.0000 0.0000 0.0000 33.7627 3.3889 -11.0149 -0.6703 -5.2357 14.5820 0.2041 -10.7286 -11.5686 -1.1856 -6.9101 19.4493 5.4745 0.6642 -1.9778 3.3925 0.7897 -2.9478 0.4296 0.2756 -1.8996 -8.2279 -5.8031 -9.2619 2.6302 -7.1769 15.0827 1.5557 -3.7791 6.5137 0.0000 -0.0000 0.0000 -86.1879 -23.7000 51.8424 69.9590 -58.4266 -42.7356 -0.0000 -0.0000 19.0012 15.6943 14.6760 4.0718 -7.1250 0.0000 -0.0000 -10.9840 44.9118 0.0242 0.0000 -0.0000 0.0000 71.3812 23.9080 44.9369 -83.4225 59.8359 -54.3069 0.0000 0.0000 11.7496 -14.1187 -14.0502 3.4944 7.1250 -0.0000 -0.0000 12.2365 -44.1013 0.2757
0.00 0.00 0.00 -99.5188 -80.4583 106.5550 0.0000 0.0000 0.0000 -2.5958 -9.8336 -31.3409 5.0432 13.4323 41.0092 0.2366 1.2915 -9.7534 0.7073 -5.3754 -14.9823 0.0000 0.0000 0.0000 35.6386 3.5146 -2.3435 -0.4200 -4.1595 11.5260 -0.0956 -9.4431 -14.9921 -0.5146 -4.5979 12.7651 7.2592 1.5667 -1.7996 2.8595 2.0069 -3.3908 -1.1083 0.8123 -2.3506 -7.5506 -5.0162 -9.4945 3.1703 -6.2084 13.6267 1.7189 -3.2040 6.0278 0.0000 0.0000 0.0000 -82.6982 -11.6051 45.9645 52.1052 -53.8101 -27.8644 -0.0000 -0.0000 11.5407 13.2190 15.8235 3.6648 -7.1250 0.0000 -0.0000 -13.5579 45.7611 -0.2594 0.0000 0.0000 0.0000 77.0483 17.0704 48.0687 -63.3015 57.1274 -37.1014 0.0000 0.0000 5.9955 -12.1197 -18.6189 3.9221 7.1250 -0.0000 -0.0000 15.5200 -48.3630 -1.3170
0.00 0.00 0.00 -108.2340 -79.7082 116.6460 0.0000 0.0000 0.0000 -0.2251 -11.8639 -30.3518 1.2622 7.1217 20.0765 -0.0693 5.9696 -6.1431 0.5621 -4.8019 -13.3445 0.0000 0.0000 0.0000 36.0649 3.2778 0.0529 -0.4705 -4.3992 12.2025 -0.3368 -8.5655 -17.2504 -0.1953 -2.8459 7.8501 7.6418 1.5564 -2.1969 2.9069 1.9423 -3.4297 -1.2607 0.7716 -2.1637 -7.0188 -4.4311 -10.8303 2.5024 -5.2755 13.6383 1.4783 -2.7555 6.1758 0.0000 -0.0000 0.0000 -85.3685 -6.1256 37.6338 32.5067 -42.9474 -13.0847 -0.0000 -0.0000 10.8204 15.1536 17.8544 4.7467 -7.1250 0.0000 -0.0000 -12.4216 48.0373 -0.9444 0.0000 -0.0000 0.0000 80.2112 13.5768 48.4701 -42.0427 49.2346 -19.9728 0.0000 0.0000 2.3388 -12.9964 -20.2862 4.5751 7.1250 -0.0000 -0.0000 15.3472 -50.1203 -1.9779
0.00 0.00 0.00 -116.9130 -78.7759 126.3920 0.0000 0.0000 0.0000 1.0224 -13.2033 -30.5770 0.4830 4.4567 12.3652 -0.1047 6.7543 -6.2804 0.5163 -4.6055 -12.7868 0.0000 0.0000 0.0000 35.5219 3.4037 2.6994 -0.9143 -6.0926 17.0533 -0.6966 -6.8077 -19.6833 -0.0486 1.4232 -3.9140 7.7148 1.4502 -2.3009 2.7808 1.7849 -3.3798 -1.4298 0.6945 -2.0597 -6.1029 -3.6862 -11.7875 2.1517 -4.3061 14.1386 1.2899 -2.2634 6.4213 0.0000 0.0000 0.0000 -89.8426 -3.4103 6.3314 9.7507 -16.3487 -1.4040 -0.0000 -0.0000 38.0408 18.2365 24.8801 7.8922 -7.1250 0.0000 -0.0000 -12.2012 55.5880 -3.2051 0.0000 0.0000 0.0000 84.8388 9.5392 39.0469 -15.7940 25.2405 -3.5576 0.0000 0.0000 7.7559 -13.6558 -23.7640 5.5917 7.1250 -0.0000 -0.0000 16.2725 -53.6144 -3.5195
0.00 0.00 0.00 -124.3860 -80.1880 132.8550 0.0000 0.0000 0.0000 -3.8472 -12.9022 -30.4444 1.5969 7.9704 22.6242 -0.0442 3.7297 -1.2606 0.0651 -1.6463 -4.5292 0.0000 0.0000 0.0000 32.1439 2.9890 1.0502 -2.9013 -10.5335 30.7221 -0.3060 -7.5471 -15.8307 -0.6886 5.3049 -14.7804 5.4020 1.2690 -1.0545 1.9799 1.6677 -2.5112 -0.9955 0.7241 -1.8982 -5.9135 -3.9300 -13.3569 3.7299 -4.8304 14.4184 1.6888 -2.3551 6.8356 -0.0000 -0.0000 0.0000 -89.4513 7.0346 -14.5259 6.2843 -10.7355 -0.5911 -0.0000 -0.0000 63.3392 -1.7075 21.9952 -0.6397 -7.1250 0.0000 -0.0000 -29.7202 49.4680 -3.5578 -0.0000 -0.0000 0.0000 85.0047 0.4666 6.5991 -6.2902 10.7454 -0.5922 0.0000 0.0000 31.2727 -10.1867 -24.8605 4.3201 7.1250 -0.0000 -0.0000 20.2627 -54.0248 -4.6412
0.00 0.00 0.00 -128.1330 -80.8835 135.9780 0.0000 0.0000 0.0000 -7.1109 -11.2164 -26.7702 1.7873 8.4082 23.9611 0.0122 1.1859 -2.8707 0.0003 0.1173 0.3222 0.0000 0.0000 0.0000 28.7851 1.5513 -6.3124 -5.8319 -14.2634 44.3032 0.4888 -12.6250 -1.5078 -0.0320 1.1545 -3.1740 4.7240 1.3349 -0.4786 1.6750 1.7860 -1.9499 -0.9394 0.8149 -1.6447 -6.0753 -4.1879 -14.0620 5.0249 -5.3308 14.4479 2.0709 -2.4819 7.0325 -0.0000 -0.0000 0.0000 -88.7116 17.4720 5.1094 9.5368 -16.0117 -1.3443 -0.0000 -0.0000 40.4608 -9.1141 17.4391 -2.7526 -7.1250 0.0000 -0.0000 -33.5856 44.5489 0.4243 -0.0000 -0.0000 0.0000 82.8615 -9.2749 4.5942 -6.6777 11.3875 -0.6665 0.0000 0.0000 28.8011 -6.6802 -22.5883 2.5759 7.1250 -0.0000 -0.0000 22.3815 -51.3048 -3.6298
